<svg width="453" height="196" viewBox="0 0 453 196" fill="none" xmlns="http://www.w3.org/2000/svg">
<path d="M51 191.4C43.6667 191.4 38.1333 189.6 34.4 186C30.6667 182.4 28.8 177.4 28.8 171L29.2 166.6C29.2 165.533 28.9333 165 28.4 165L27.2 165.8C24 171.133 20.6667 176.067 17.2 180.6C13.7333 185 11.0667 188.133 9.2 190L6.4 192.6C4.53333 194.333 3.13333 195.2 2.2 195.2C1.26667 195.2 0.8 194.4 0.8 192.8C0.8 190.667 1.46667 188.067 2.8 185C4.8 180.6 7.6 174.733 11.2 167.4C14.6667 159.933 21.6667 146.8 32.2 128C42.8667 109.067 53.2 92.4 63.2 78C73.3333 63.3333 81.2 53.3333 86.8 48C88.8 46 90.3333 45 91.4 45C92.0667 45 92.4 45.5333 92.4 46.6C92.4 46.8667 92.2667 47.8 92 49.4C90.8 54.7333 86.0667 64.5333 77.8 78.8C61.2667 105.733 49.2667 127.6 41.8 144.4C36.8667 153.867 34.4 162.6 34.4 170.6C34.4 175.133 35.6 178.867 38 181.8C40.4 184.6 43.7333 186 48 186C54.1333 186 60.0667 183.533 65.8 178.6C71.6667 173.667 76.5333 167.733 80.4 160.8C84.2667 153.867 87.4 146.8 89.8 139.6C92.2 132.4 93.4 126.333 93.4 121.4C93.4 109.533 87.9333 102.333 77 99.8C76.8667 99.2667 76.8 98.7333 76.8 98.2C76.8 96.6 77.7333 95.6667 79.6 95.4C89.8667 95.4 99 91.6 107 84C115 76.2667 119 67.4 119 57.4C119 51.8 116.933 46.8667 112.8 42.6C108.667 38.2 101 36 89.8 36C77.6667 36 67.8667 39.3333 60.4 46C52.9333 52.6667 49.2 60.2667 49.2 68.8C49.2 71.2 49.6667 73.4 50.6 75.4C51.1333 76.4667 51.4 77.3333 51.4 78C51.4 78.8 51 79.2 50.2 79.2C49.5333 79.2 48.9333 79.0667 48.4 78.8C47.4667 78.4 46.3333 77.8667 45 77.2C43.6667 76.5333 41.8667 74.8667 39.6 72.2C37.4667 69.5333 36.4 66.6 36.4 63.4C36.4 54.6 41.8 47.0667 52.6 40.8C63.4 34.4 76.4667 31.2 91.8 31.2C93.4 31.2 95.2 31.2667 97.2 31.4C99.3333 31.5333 102.733 32.1333 107.4 33.2C112.067 34.2667 116.133 35.7333 119.6 37.6C123.2 39.3333 126.4 42.1333 129.2 46C132 49.8667 133.4 54.4 133.4 59.6C133.4 65.0667 132.067 70.1333 129.4 74.8C126.867 79.3333 123.4 83.2 119 86.4C114.733 89.4667 110.2 92 105.4 94C100.733 96 95.8667 97.5333 90.8 98.6C89.8667 99 89.4 99.4 89.4 99.8C89.4 100.067 89.8 100.4 90.6 100.8C91 101.067 91.6 101.4 92.4 101.8C93.2 102.2 94.5333 103.267 96.4 105C98.4 106.733 100.133 108.667 101.6 110.8C103.2 112.8 104.6 115.6 105.8 119.2C107 122.8 107.6 126.6 107.6 130.6C107.6 145.933 101.867 159.933 90.4 172.6C79.0667 185.133 65.9333 191.4 51 191.4ZM191.244 115.6C192.444 115.867 193.044 116.267 193.044 116.8C193.044 117.6 192.51 118.533 191.444 119.6C189.977 121.067 187.777 123 184.844 125.4C182.044 127.8 180.377 129.267 179.844 129.8L177.044 133.6C174.244 141.467 169.91 149.667 164.044 158.2C158.31 166.6 151.244 174 142.844 180.4C134.577 186.8 126.644 190 119.044 190C109.577 190 104.844 184.2 104.844 172.6C104.844 162.333 108.177 151.267 114.844 139.4C121.51 127.4 130.11 117.2 140.644 108.8C151.31 100.267 161.777 96 172.044 96C179.51 96 183.244 98.9333 183.244 104.8C183.244 108 181.644 112.333 178.444 117.8C178.31 117.933 178.244 118.133 178.244 118.4C178.244 118.667 178.377 118.8 178.644 118.8C183.577 116.8 187.777 115.733 191.244 115.6ZM172.244 120.4C173.31 115.733 173.844 112.133 173.844 109.6C173.844 104 171.977 101.2 168.244 101.2C163.044 101.2 156.577 106 148.844 115.6C141.11 125.2 134.444 136 128.844 148C123.377 160 120.644 169.467 120.644 176.4C120.644 181.467 122.444 184 126.044 184C131.644 184 138.31 178.4 146.044 167.2C153.91 156 158.644 144.733 160.244 133.4C160.11 133.133 160.044 132.733 160.044 132.2C160.044 128.333 163.51 124.867 170.444 121.8C171.51 121.4 172.11 120.933 172.244 120.4ZM260.775 115.6C261.975 115.867 262.575 116.267 262.575 116.8C262.575 117.6 262.042 118.533 260.975 119.6C259.508 121.067 257.308 123 254.375 125.4C251.575 127.8 249.908 129.267 249.375 129.8L246.575 133.6C243.775 141.467 239.442 149.667 233.575 158.2C227.842 166.6 220.775 174 212.375 180.4C204.108 186.8 196.175 190 188.575 190C179.108 190 174.375 184.2 174.375 172.6C174.375 162.333 177.708 151.267 184.375 139.4C191.042 127.4 199.642 117.2 210.175 108.8C220.842 100.267 231.308 96 241.575 96C249.042 96 252.775 98.9333 252.775 104.8C252.775 108 251.175 112.333 247.975 117.8C247.842 117.933 247.775 118.133 247.775 118.4C247.775 118.667 247.908 118.8 248.175 118.8C253.108 116.8 257.308 115.733 260.775 115.6ZM241.775 120.4C242.842 115.733 243.375 112.133 243.375 109.6C243.375 104 241.508 101.2 237.775 101.2C232.575 101.2 226.108 106 218.375 115.6C210.642 125.2 203.975 136 198.375 148C192.908 160 190.175 169.467 190.175 176.4C190.175 181.467 191.975 184 195.575 184C201.175 184 207.842 178.4 215.575 167.2C223.442 156 228.175 144.733 229.775 133.4C229.642 133.133 229.575 132.733 229.575 132.2C229.575 128.333 233.042 124.867 239.975 121.8C241.042 121.4 241.642 120.933 241.775 120.4ZM311.906 155.8C317.506 150.2 324.906 142.133 334.106 131.6C334.506 131.2 334.84 131 335.106 131C335.373 131 335.506 131.267 335.506 131.8C335.506 134.333 334.506 136.8 332.506 139.2C322.64 150.133 313.906 159.267 306.306 166.6C305.64 167.267 304.373 168.533 302.506 170.4C300.773 172.133 299.373 173.533 298.306 174.6C297.24 175.533 295.84 176.867 294.106 178.6C292.373 180.2 290.906 181.467 289.706 182.4C288.506 183.333 287.173 184.333 285.706 185.4C284.373 186.333 283.106 187 281.906 187.4C280.84 187.933 279.906 188.2 279.106 188.2C276.706 188.2 275.506 186 275.506 181.6C275.506 176.8 276.506 170.667 278.506 163.2C280.64 155.733 282.773 149.467 284.906 144.4L287.906 136.8C288.04 136.533 288.106 136.267 288.106 136C288.106 135.733 287.973 135.6 287.706 135.6L286.506 136C281.44 141.067 276.173 146.8 270.706 153.2C265.373 159.467 261.306 164.467 258.506 168.2L254.306 173.8C251.64 177.933 248.506 181.533 244.906 184.6C241.44 187.667 238.773 189.2 236.906 189.2C235.573 189.2 234.906 188.333 234.906 186.6C234.906 184.067 236.106 180.067 238.506 174.6C240.906 169.133 243.306 164.267 245.706 160L249.306 153.6L278.506 101.4C304.773 54.7333 323.906 23.8 335.906 8.6C339.906 3.39999 342.706 0.799988 344.306 0.799988C344.973 0.799988 345.306 1.33332 345.306 2.39999C345.306 5.33333 343.173 11.0667 338.906 19.6C317.973 57.4667 303.44 83.6667 295.306 98.2C279.44 126.6 269.906 143.467 266.706 148.8V149.6C266.706 150 266.84 150.2 267.106 150.2C267.373 150.2 267.773 149.933 268.306 149.4L277.706 139.2C284.106 132.4 289.906 126.4 295.106 121.2C300.306 116 306.106 110.933 312.506 106C318.906 100.933 323.64 98.4 326.706 98.4C328.84 98.4 329.906 100 329.906 103.2C329.906 105.067 329.24 107.933 327.906 111.8C326.573 115.667 325.24 117.6 323.906 117.6C323.373 117.6 322.906 116.933 322.506 115.6C321.84 112.267 319.906 110.6 316.706 110.6C312.173 110.6 307.973 114.933 304.106 123.6C300.24 132.133 297.506 140.467 295.906 148.6C294.306 156.6 293.506 162 293.506 164.8C293.506 167.733 294.24 169.2 295.706 169.2C296.906 169.2 298.44 168.467 300.306 167C302.306 165.4 304.573 163.267 307.106 160.6C309.773 157.933 311.373 156.333 311.906 155.8ZM397.772 103.2C389.505 103.6 380.305 103.8 370.172 103.8H367.772C348.972 137.933 337.772 161.067 334.172 173.2C333.639 174.8 333.372 176.267 333.372 177.6C333.372 181.6 336.905 183.6 343.972 183.6C346.905 183.6 350.105 183.067 353.572 182C357.039 180.8 361.239 178.8 366.172 176C371.239 173.067 376.905 168.467 383.172 162.2C389.439 155.933 395.839 148.333 402.372 139.4C403.172 137.933 404.372 137.2 405.972 137.2C407.039 137.2 407.572 137.733 407.572 138.8C407.572 139.067 407.439 139.6 407.172 140.4C400.772 156.8 392.639 171.467 382.772 184.4C381.972 186.267 379.972 187.467 376.772 188C365.839 188.533 354.305 188.8 342.172 188.8C328.305 188.8 317.105 188.333 308.572 187.4C306.972 187.267 306.172 186.333 306.172 184.6C306.172 183.533 306.439 182.467 306.972 181.4C314.572 164.333 328.905 138.4 349.972 103.6L340.972 103.4C339.239 103.4 338.372 102.867 338.372 101.8C338.372 100.733 338.905 99.8 339.972 99C341.172 98.0667 342.372 97.6 343.572 97.6H353.772L377.972 58.8C379.972 55.2 380.972 51.9333 380.972 49C380.972 47 380.505 45.2667 379.572 43.8C378.772 42.3333 377.905 41.3333 376.972 40.8L375.572 40C374.372 39.3333 373.772 38.6 373.772 37.8C373.772 37.2667 373.972 36.8 374.372 36.4C374.905 36 375.439 35.7333 375.972 35.6L376.772 35.4C390.505 34.6 404.772 34.2 419.572 34.2C431.839 34.2 441.705 34.5333 449.172 35.2C451.172 35.2 452.172 36.0667 452.172 37.8C452.172 38.2 451.972 38.9333 451.572 40C447.172 51.0667 442.705 59.7333 438.172 66C437.505 66.6667 436.772 67 435.972 67C434.772 67 434.172 66.1333 434.172 64.4C434.839 61.8667 435.172 59.1333 435.172 56.2C435.172 45.2667 429.705 39.8 418.772 39.8H417.972C411.172 39.8 406.305 41.6667 403.372 45.4C396.572 53.8 387.505 68.2667 376.172 88.8C374.839 91.0667 373.172 93.9333 371.172 97.4H401.172C402.505 97.4 403.172 97.8 403.172 98.6C403.172 99.4 402.572 100.333 401.372 101.4C400.305 102.467 399.105 103.067 397.772 103.2Z" fill="white"/>
</svg>
