<?xml version="1.0" encoding="UTF-8"?>
<svg id="_レイヤー_1" xmlns="http://www.w3.org/2000/svg" version="1.1" viewBox="0 0 700 370">
  <!-- Generator: Adobe Illustrator 29.0.1, SVG Export Plug-In . SVG Version: 2.1.0 Build 192)  -->
  <defs>
    <style>
      .st0 {
        fill: #f9f8f8;
      }
    </style>
  </defs>
  <path class="st0" d="M49.3,328.7c-6.3-21.2,10.8-67.6,20.9-92.7-19.6,7.3-36.5,13.6-46.7,15.4-7.5,1.4-7.1-.4-4.9-1.2,5.8-2.6,7.9-3.4,20.7-8.2,7.1-2.7,19.7-7.1,33.5-12.1,13.3-31.8,29.7-62.3,43.1-84.5-27.8,10-59.9,24.4-62.5,27-3.2,3.5-9.3,7.5-14.8,8.5-3.4.6-6.7.2-8.9-2.2-.6-.2-1-.4-1.1-.9-.9-5.1,49.9-26,92.3-40.8,10.1-16.1,17.6-26.3,19.5-27,4-1.3,12.1,1.6,7,3.6-1.3.4-6.4,7.3-14,19.1,5.9-1.8,11.5-3.6,16.5-5.2,27.2-8.2,57.2-15.4,76.6-18.9,8.4-1.5,17-3.3,25.6-3.9,6.9-.5,9.9,1.5,10,2.6.6,3.4-30.5,8.2-34.1,9.6-24.1,6.2-51.6,11.6-71.7,21.5-1.4.6-2.1.8-2.4.9h-.1c-.1-.6,9.3-6.4,10.1-6.4,4.8-2.6,10.2-4,15.2-6.3-1.1,0-2.1.2-3.1.4-11,2-19.4,4.9-46,13.5l-1.4.4c-11.7,19.6-27.3,48.8-43.1,84.5,22.6-7.8,45.9-15.4,55.2-17.1,5-.9,10.3-1.6,15.6-2.1,11,.1,15.4,1.3,15.7,2.9,1.1,5.7-49.6,18.7-54.6,21.3-.7.1-.7-.8.5-1.2,14.2-7.8,25.1-11.2,37.5-17.4-3,.4-6.1.8-9,1.4-20.6,3.8-43.1,11.1-63.6,18.4-13.2,30.5-29.6,70.9-23.2,97.7.2,1,.6,2.2.9,3,1,3.2,2.7,4.1,4.8,3.5,5.5-1.3,13.4-12.8,14.8-12.1-1.3,9.4-6.5,14-12.2,15.3-8.3,2-16.2-2.8-18.4-10.3Z"/>
  <path class="st0" d="M185.7,272.2c-2.3-.8-3.4-3-3.9-5.7-1.5-8.1,8.5-32.1,11.9-38.6,1.5-2.8,7.9-3.4,10.1-2,1,.6,1.2,1.3.9,2.3-.7,1.3-1.2,2.6-1.7,3.8-5.2,10.5-10.7,24.2-12,32.1-.6,3.9.8,4.1,3.3,2,7.5-6.5,18.4-23,23.8-31.7.6-1,1.7-3.8,2.1-4.9.8-1.7,1.9-2.3,3.5-2.2,4.2.6,5.2,1.2,5.5,2.6.1.6.1,1.5,0,2.4-1,8.4-2.9,14.7-1.4,23,.4,2.2,1.8,4.2,4.5,3.7,7.1-1.3,35.6-29.2,43.9-38.9.4-.4,1.1-1.4,1.5-1,.2.1.2.3.2.3.1.6-.7,1.2-1.1,1.6-9.8,13-19.9,25.7-32.2,36.6-1.5,1.5-3.3,2.9-5,4-1.8,1.1-3.6,1.7-5.4,2.1-4,.7-10.2-1.2-12.6-3.3-2.4-2.1-3.6-3.7-4.4-8.2-.4-2.1,0-4.4-.3-6.8-1.6,2.3-19,26.4-25,27.5-1.9.4-3.9.1-6.1-.7Z"/>
  <path class="st0" d="M314.2,231.5c-3.7-3.7-6.2-8.3-8.4-12.9-.8-1.7-1.4-2.9-3.3-1.2-2.6,2.4-4.7,5.1-6.7,7.9-4.5,6.1-9,12.3-13.5,18.3-.8,1.2-1.7,2.3-2.7,3.2-2.6,2.6-6.7,3.1-9.9.9-1.2-.8-1.8-2.1-1.9-3.5-.4-2.1-.1-3.9.3-6,1.5-9.4,5.2-19.6,8.4-25.4,1.6-2.9,7.9-3.4,10.1-2,1,.6,1.3,1.3.9,2.3-.5,1.3-1.2,2.6-2.5,5.6-3.7,8.9-6,15.4-7.6,22.4,5.3-6.7,16.5-21.1,22.8-28,4.2-4.6,11.8-2.6,14.8,1.2,5,6.4,5.8,11.5,10.6,17.2,1.9,2.2,4.2,2.4,6.8,1.3,3-1.3,5.6-2.8,8.2-4.7,8.4-5.5,16-12.2,23-19.3.6-.7,1.3-1.9,2.2-1.5.3.2-.6,1.5-1.1,2.2-6.4,9.7-14.7,17.6-23.9,24.3-2.3,1.6-4.6,2.8-7.3,3.2-7,1-14.2-.6-19.3-5.6Z"/>
  <path class="st0" d="M359.6,225.6c-1.4-7.6,1.1-17.4,9.5-28.3,4.5-5.1,10.9-10.7,18.2-11.8,4.3-.6,10.3.7,11.1,5.1.2,1.2.2,2.6-.5,4-3.1,7.7-16.1,18.9-28.2,25.2-.6,2.7-.6,5.6-.1,8.4,1.2,6.8,6.2,12.1,16.2,9.5,11.9-2.8,31.5-21.4,52.7-40.5,1-.9,3.1-2.1,2.1-.7-2.3,3.3-35,42-55.8,45.3-12.5,1.5-23.2-4.8-25.3-16.2ZM390.1,197.4c1.5-1.9,2.6-5,2.2-6.9-.2-1-.9-1.5-2.1-1.3-1.2.2-2.9,1-5.1,2.9-7.3,5.6-11.6,13.7-14.5,22.6,7-4.9,14.3-10.1,19.5-17.2Z"/>
  <path class="st0" d="M429.8,220c0-.4-.2-1-.1-1.5-.2-11.1,4.8-29,8-37.3,1.1-2.9,7.9-3.4,10.1-2,1,.6,1.2,1.3.9,2.3-.7,1.3-1.2,3.3-1.6,4.4-1.8,4.9-3.9,14.2-5.6,25,2.7-4.4,5.6-8.9,8-13.3,4.9-8.8,9.7-17.4,14.5-26.2,1.8-3.2,5.9-4.1,8.8-1.6,5.6,4.9,7.3,7.3,11.2,10.7,3.6,3,8.7,3.6,14.8,2.6,7.5-1.2,15.4-2.8,23.7-7.4.3,0,.7-.3,1.1-.4.1,0,.3,0,.5,0,.2.3,0,.4,0,.6-1.2,1.6-2.8,2.8-4.6,3.7-4.3,2.5-14.8,7-20.6,7.9-7.1,1.1-15.2-.9-22.7-5.4-2.4-1.5-4.7-3.2-7-4.9-1.4-1.3-3.1.7-4.1,2.4-1.4,2.1-9.7,16.5-13.2,22.5-2.9,4.8-9,16.4-11.7,20.4-.9,1.1-1.3,1.9-2.6,2.2-1.9.4-7.2-2-7.7-4.7Z"/>
  <path class="st0" d="M512.9,205.6c-2.6-1-3.4-3.8-3.9-6.1-2.5-13.5,15.4-38.4,32.4-41.2,4.1-.8,8.9-.6,12,1-.9-2.4.3-3.2,1.9-3.5,1.9-.2,3.8.2,5.6.9,1.2.5,1.8,1.5,2.2,2.6,1.7,6.5,6.3,16,10.3,20.4,2.9,3.4,6.8,4.5,11.5,3.7,11.8-2.2,25.7-14.9,34-24.2,1-1.1,2.1-2.5,3.3-3.8.3-.2.4-.4.7-.3.5.2.1.6.1.7-.4,1.9-1.3,3.6-2.2,5.1-2.1,3.6-5,6.8-7.9,9.8-7.5,7-17.4,14.1-26,15.7-6.6,1.2-12.8,0-19.4-3.9-4.9-2.9-9.3-10.8-12.4-17-8.4,15.4-14.3,23.9-21.8,33.2-1.9,2.2-4.1,4.1-6.4,5.7-1.7,1.2-3.4,2-5.2,2.3-2.8.5-5.8,0-8.7-1.3ZM540.5,181c4.2-5.3,7.7-11.6,11.5-17.6-1.4-1.3-3.1-2.2-5.7-1.5-12.1,2.7-28.9,29.5-27.3,38.1.4,2.2,2.1,1.6,3.1,1,8-5.1,13.8-13.9,18.5-20Z"/>
  <path class="st0" d="M617.2,173.6c-2.8-15.1,10-48.9,16.9-63.4,8.3-17.5,22.7-42.5,35-54.7,3.1-3.1,6-4.6,8.3-5,.7-.1,1.5-.1,2.1,0,3,.5,4.5,1.3,4.8,3.2,1.8,9.7-19.3,45.3-31,61.1-7.1,9.5-13.8,19.4-20.5,29-.8,1.2-1.5,2.4-1.9,3.7-2,7.4-3.8,14.7-4.4,22.2-.7,12.9,2.4,21.4,14.3,19.2,11.8-2.2,23-12.6,31.4-21.9,1-1.1,2.1-2.5,3.3-3.8.3-.2.4-.4.7-.3.5.2.1.6.1.7-.4,1.9-1.3,3.6-2.2,5.1-2.1,3.6-5,6.8-7.9,9.8-7.5,7-16.1,12.4-24.6,13.9-11.6,2.1-21.8-4.5-24.4-18.9ZM647.9,115.8c7.7-11,15.5-21.7,21.3-33.8,3-6.6,6.2-13.3,8.6-20.4,2.2-6.5-.3-6.3-2.5-3-7.1,10-14.2,20.4-20.1,31.3-7.7,14.3-14.7,28.5-19.7,43.9l12.5-17.9Z"/>
</svg>